<svg width="45" height="43" viewBox="0 0 45 43" fill="none" xmlns="http://www.w3.org/2000/svg">
<path d="M31.875 5.375H13.125C8.98286 5.375 5.625 8.58362 5.625 12.5417V30.4583C5.625 34.4164 8.98286 37.625 13.125 37.625H31.875C36.0172 37.625 39.375 34.4164 39.375 30.4583V12.5417C39.375 8.58362 36.0172 5.375 31.875 5.375Z" fill="#1F1D1D" stroke="#8B8989" stroke-opacity="0.71" stroke-width="5.33333" stroke-linejoin="round"/>
<path d="M22.5 28.6668C26.6422 28.6668 30 25.4582 30 21.5002C30 17.5421 26.6422 14.3335 22.5 14.3335C18.3578 14.3335 15 17.5421 15 21.5002C15 25.4582 18.3578 28.6668 22.5 28.6668Z" fill="#1B1B1B" stroke="white" stroke-width="5.33333" stroke-linejoin="round"/>
<path d="M32.8125 13.4373C33.8481 13.4373 34.6875 12.6352 34.6875 11.6457C34.6875 10.6561 33.8481 9.854 32.8125 9.854C31.7769 9.854 30.9375 10.6561 30.9375 11.6457C30.9375 12.6352 31.7769 13.4373 32.8125 13.4373Z" fill="white"/>
</svg>
