<svg width="36" height="36" viewBox="0 0 36 36" fill="none" xmlns="http://www.w3.org/2000/svg">
<path d="M3.75 26.8216C5.19665 27.6214 15.6686 33.658 23.1149 29.0055C30.5612 24.353 30.1504 16.3375 30.1504 12.6645C30.825 11.2513 32.25 10.5329 32.25 6.70785C30.8503 8.00085 29.459 8.4408 28.0763 8.0277C26.7215 5.96218 24.8576 5.0486 22.4846 5.287C18.925 5.6446 17.6227 9.13687 18.0059 13.655C12.5174 16.4305 8.21362 11.643 5.99564 8.0277C5.25455 10.8749 4.53998 14.2932 5.99564 18.0746C6.96608 20.5955 9.29887 22.7268 12.994 24.4684C9.24922 26.4981 6.16787 27.2824 3.75 26.8216Z" fill="white" stroke="black" stroke-opacity="0.67" stroke-width="5.33333" stroke-linejoin="round"/>
</svg>
